<?xml version="1.0" standalone="no"?>
<!DOCTYPE svg PUBLIC "-//W3C//DTD SVG 20010904//EN"
 "http://www.w3.org/TR/2001/REC-SVG-20010904/DTD/svg10.dtd">
<svg version="1.0" xmlns="http://www.w3.org/2000/svg"
 width="254pt" height="59pt" viewBox="0 0 254.000000 118.000000"
 preserveAspectRatio="xMidYMid meet">

<g transform="translate(0.000000,118.000000) scale(0.100000,-0.100000)"
fill="#000000" stroke="none">
<path d="M264 1000 c92 -59 151 -144 211 -305 70 -187 86 -209 178 -237 59
-18 63 -29 33 -94 -14 -31 -26 -67 -26 -79 0 -26 41 -79 74 -97 12 -7 4 7 -21
35 -24 26 -43 51 -43 56 0 5 14 38 30 73 18 38 28 72 24 82 -4 10 -35 31 -70
47 -74 35 -85 51 -144 198 -52 131 -64 154 -111 217 -35 47 -146 134 -172 134
-6 0 11 -14 37 -30z"/>
<path d="M1002 839 c14 -6 29 -18 33 -27 11 -24 19 -332 11 -386 -6 -36 -13
-49 -34 -61 -25 -13 -20 -14 73 -15 l100 0 -31 19 c-28 17 -32 25 -37 81 -9
81 -9 288 -1 330 5 21 17 38 38 51 l31 19 -105 -1 c-80 0 -99 -3 -78 -10z"/>
<path d="M1297 840 c12 -5 26 -18 32 -29 14 -25 15 -380 1 -415 -6 -16 -21
-29 -42 -35 -25 -7 6 -9 120 -10 171 -1 201 6 245 58 55 65 25 162 -58 193
-43 15 -44 22 -6 38 42 17 62 43 68 88 6 48 -8 77 -50 102 -28 18 -50 20 -182
19 -97 0 -142 -3 -128 -9z m243 -15 c37 -19 50 -43 50 -93 0 -70 -56 -112
-147 -112 l-33 0 0 104 c0 74 4 106 13 109 26 11 89 6 117 -8z m17 -238 c74
-39 70 -172 -7 -212 -34 -17 -87 -19 -126 -5 l-27 10 5 103 c2 57 8 109 13
116 10 17 101 9 142 -12z"/>
<path d="M1789 836 c14 -8 28 -22 32 -32 10 -25 11 -406 1 -419 -4 -6 -18 -16
-32 -22 -21 -10 -7 -12 80 -12 93 1 102 2 77 13 -16 7 -33 19 -38 27 -10 16
-12 388 -3 414 4 10 21 23 38 31 29 12 23 13 -74 13 -94 0 -102 -1 -81 -13z"/>
<path d="M226 821 c23 -5 72 -23 109 -40 77 -35 75 -35 75 -20 0 18 -112 61
-170 65 -53 3 -53 3 -14 -5z"/>
<path d="M4287 813 c-12 -11 -7 -41 7 -46 8 -3 22 0 32 8 15 11 16 15 5 29
-14 17 -33 21 -44 9z"/>
<path d="M4438 803 c19 -17 21 -31 24 -200 3 -172 2 -183 -17 -197 -19 -14
-16 -15 39 -16 57 0 58 1 43 18 -11 12 -17 36 -17 65 0 37 4 49 22 58 19 10
25 8 45 -15 12 -15 25 -39 29 -54 13 -64 21 -72 66 -72 43 1 43 1 17 15 -18
10 -30 29 -39 60 -7 26 -23 62 -36 80 l-22 33 31 30 c18 17 43 35 57 41 20 8
13 10 -40 10 -50 0 -60 -2 -42 -9 18 -8 21 -13 13 -28 -11 -22 -91 -95 -97
-90 -2 2 -4 68 -5 146 l-2 142 -44 0 c-44 0 -45 0 -25 -17z"/>
<path d="M2215 803 c41 -9 45 -29 45 -200 0 -161 0 -164 -25 -188 l-24 -25 82
0 82 0 -32 20 c-32 19 -33 21 -33 94 0 69 2 76 26 95 36 29 79 27 99 -3 9 -13
22 -56 31 -96 22 -107 24 -110 92 -110 56 1 56 1 27 14 -32 14 -53 53 -75 138
-14 54 -41 83 -90 95 l-35 9 62 62 c34 35 81 71 105 82 l43 20 -79 0 c-77 0
-78 0 -56 -18 l23 -18 -62 -72 c-55 -64 -87 -92 -106 -92 -3 0 -4 41 -3 92 3
89 4 92 28 99 14 4 -11 7 -60 7 -47 0 -76 -2 -65 -5z"/>
<path d="M4111 722 c-8 -18 -30 -44 -50 -58 l-36 -24 32 0 31 0 -5 -97 c-5
-120 5 -147 58 -151 25 -2 43 3 60 18 l24 20 -27 -10 c-57 -20 -78 12 -78 113
0 96 6 107 51 107 21 0 41 5 44 10 4 6 -11 10 -39 10 l-45 0 -3 48 -3 47 -14
-33z"/>
<path d="M145 691 c-18 -7 -17 -10 15 -30 47 -29 72 -34 131 -29 76 8 81 25 6
20 -56 -4 -66 -1 -94 22 -17 14 -32 26 -34 25 -2 0 -13 -4 -24 -8z"/>
<path d="M2784 663 c3 -3 16 -11 28 -17 54 -27 76 -142 38 -203 -33 -55 -99
-54 -136 2 -37 57 -13 184 39 205 l22 9 -23 0 c-12 1 -39 -14 -59 -32 -31 -29
-37 -41 -40 -88 -5 -64 9 -94 56 -126 104 -70 242 39 202 160 -15 45 -50 77
-96 87 -20 5 -34 6 -31 3z"/>
<path d="M3276 662 c-38 -3 -39 -4 -15 -16 23 -11 24 -15 24 -120 0 -95 -2
-109 -19 -122 -18 -13 -14 -14 40 -14 51 1 57 2 42 14 -27 20 -25 159 2 203
26 44 67 54 92 23 15 -18 18 -40 18 -116 0 -85 -2 -94 -22 -108 -21 -15 -19
-16 42 -16 63 0 64 0 41 17 -23 15 -24 20 -18 107 5 82 9 93 32 114 14 12 37
22 50 22 41 0 55 -34 55 -137 0 -84 -2 -93 -22 -107 -21 -15 -20 -16 36 -16
57 0 58 1 43 18 -14 15 -17 40 -17 119 0 84 -3 103 -18 116 -24 22 -86 22
-122 1 -26 -16 -29 -16 -51 0 -32 22 -91 20 -122 -4 -31 -25 -37 -25 -37 -1 0
25 -6 27 -54 23z"/>
<path d="M4883 649 c18 -14 27 -30 27 -49 0 -33 -10 -43 -70 -65 -54 -21 -80
-48 -80 -85 0 -56 72 -80 123 -40 l26 20 6 -20 c5 -15 15 -20 40 -20 38 0 55
15 26 23 -17 4 -20 17 -23 110 -2 61 -8 111 -14 117 -6 6 -29 15 -50 20 l-39
9 28 -20z m27 -147 c0 -60 -21 -92 -60 -92 -37 0 -57 32 -41 66 9 21 74 72 94
73 4 1 7 -20 7 -47z"/>
<path d="M2981 629 c-16 -46 -14 -47 18 -11 26 27 37 32 76 32 l47 0 -28 -47
c-15 -27 -50 -82 -77 -123 l-49 -75 84 -8 c99 -9 125 -4 133 26 18 61 17 62
-16 24 -32 -37 -36 -38 -87 -35 l-53 3 64 101 c103 161 103 144 -7 144 l-94 0
-11 -31z"/>
<path d="M3816 639 c-36 -29 -56 -70 -56 -119 0 -80 49 -130 127 -130 39 0
103 31 103 51 0 6 -12 1 -26 -10 -16 -13 -41 -21 -64 -21 -49 0 -90 44 -90 96
l0 34 68 0 c92 0 112 7 112 37 0 31 -53 83 -84 82 -21 0 -21 0 2 -9 26 -11 47
-52 39 -74 -5 -12 -22 -16 -72 -16 -56 0 -65 3 -65 18 0 24 28 62 54 72 l21 9
-21 0 c-12 1 -33 -8 -48 -20z"/>
<path d="M4265 653 c11 -3 23 -10 27 -17 13 -19 9 -211 -4 -224 -9 -9 -4 -12
23 -12 l34 0 -3 130 -3 130 -47 -1 c-26 -1 -38 -4 -27 -6z"/>
<path d="M4792 644 c-14 -10 -22 -24 -20 -37 5 -34 27 -31 43 6 8 19 20 37 27
40 7 3 4 6 -7 6 -11 1 -31 -6 -43 -15z"/>
<path d="M70 592 c0 -23 22 -56 67 -98 38 -36 43 -45 43 -86 0 -33 5 -50 21
-64 22 -19 22 -19 10 3 -6 12 -11 43 -11 69 0 45 -3 51 -54 98 -29 28 -58 60
-64 71 -6 11 -12 14 -12 7z"/>
<path d="M4368 393 c7 -3 16 -2 19 1 4 3 -2 6 -13 5 -11 0 -14 -3 -6 -6z"/>
</g>
</svg>
